<svg xmlns="http://www.w3.org/2000/svg" xmlns:xlink="http://www.w3.org/1999/xlink" width="241" height="110"><defs><path id="a" d="M1080.084 125.161l1.633 4.49h5.29l-4.279 2.777 1.636 4.49-4.28-2.774-4.282 2.774 1.636-4.49-4.28-2.777h5.29z"/><path id="b" d="M852.916 125.161l1.635 4.49h5.29l-4.279 2.777 1.636 4.49-4.282-2.774-4.28 2.774 1.636-4.49-4.28-2.777h5.29z"/><path id="c" d="M1031.301 116.987s-3.379-9.049-11.484-4.824c-2.376 1.236-6.905 4.966-12.112 9.611-10.428-13.428-26.864-34.002-32.681-38.066-8.78-6.126-14.381 4.03-14.381 4.03l-36.22 30.444c-3.419-2.912-6.276-5.122-7.998-6.02-8.109-4.224-11.488 4.825-11.488 4.825L867.45 158.38h21.513c.714-.63 1.32-1.166 1.785-1.58 11.485-10.255 1.349-6.637 2.025-8.444.677-1.81 4.056-6.637 8.112-6.035 4.052.604 9.46-.602 12.16-3.616 2.706-3.018.678-3.622 6.082-7.845 5.409-4.221 7.434 2.415 14.868 10.86 7.434 8.443 23.651 7.84 23.651 7.84s-9.093-9.112-18.916-18.391c12.214-8.776.9-6.347 1.967-8.283 1.122-2.033 5.962-7.224 10.62-5.933 4.662 1.29 11.235.644 14.962-2.515 3.718-3.16 1.443-4.16 8.558-8.35 7.12-4.192 8.311 3.902 15.535 14.899 2.304 3.512 5.836 6.051 9.565 7.9-10.697 10.007-21.344 20.672-21.344 20.672s16.216.604 23.65-7.84c7.435-8.444 9.463-15.08 14.866-10.859 5.41 4.223 3.382 4.827 6.083 7.845 2.705 3.014 8.11 4.22 12.162 3.616 4.058-.602 7.434 4.224 8.11 6.035.678 1.807-9.458-1.81 2.029 8.444.463.414 1.069.95 1.785 1.58h21.508z"/></defs><use fill="#3e3e40" xlink:href="#a" transform="translate(-846 -49)"/><use fill="#3e3e40" xlink:href="#b" transform="translate(-846 -49)"/><use fill="#3e3e40" xlink:href="#c" transform="translate(-846 -49)"/><g><text style="line-height:27px" dominant-baseline="text-before-edge" font-family="'OstrichSans-Black','OstrichSans-Black'" font-size="4.83" font-style="none" font-weight="400" transform="translate(8)"><tspan letter-spacing="1.93" style="font-kerning:normal">INSPIRE THE WORLD EVERYDAY</tspan></text></g></svg>