<svg height="110" width="241" xmlns="http://www.w3.org/2000/svg" xmlns:xlink="http://www.w3.org/1999/xlink"><defs><path d="M1080.1 125.2l1.6 4.5h5.3l-4.3 2.8 1.6 4.5-4.3-2.8-4.3 2.8 1.6-4.5-4.3-2.8h5.3z" id="a"/><path d="M852.9 125.2l1.6 4.5h5.3l-4.3 2.8 1.6 4.5-4.3-2.8-4.3 2.8 1.6-4.5-4.3-2.8h5.3z" id="b"/><path d="M1031.3 117s-3.4-9-11.5-4.8c-2.4 1.2-6.9 5-12.1 9.6-10.4-13.4-26.9-34-32.7-38.1-8.8-6.1-14.4 4-14.4 4l-36.2 30.4c-3.4-2.9-6.3-5.1-8-6-8.1-4.2-11.5 4.8-11.5 4.8l-37.4 41.5H889c.7-.6 1.3-1.2 1.8-1.6 11.5-10.3 1.3-6.6 2-8.4.7-1.8 4.1-6.6 8.1-6 4.1.6 9.5-.6 12.2-3.6 2.7-3 .7-3.6 6.1-7.8 5.4-4.2 7.4 2.4 14.9 10.9 7.4 8.4 23.7 7.8 23.7 7.8s-9.1-9.1-18.9-18.4c12.2-8.8.9-6.3 2-8.3 1.1-2 6-7.2 10.6-5.9 4.7 1.3 11.2.6 15-2.5 3.7-3.2 1.4-4.2 8.6-8.3 7.1-4.2 8.3 3.9 15.5 14.9 2.3 3.5 5.8 6.1 9.6 7.9-10.7 10-21.3 20.7-21.3 20.7s16.2.6 23.6-7.8c7.4-8.4 9.5-15.1 14.9-10.9 5.4 4.2 3.4 4.8 6.1 7.8 2.7 3 8.1 4.2 12.2 3.6 4.1-.6 7.4 4.2 8.1 6 .7 1.8-9.5-1.8 2 8.4.5.4 1.1.9 1.8 1.6h21.5z" id="c"/></defs><use fill="#3e3e40" transform="translate(-846.3 -48.7)" xlink:href="#a"/><use fill="#3e3e40" transform="translate(-846.3 -48.7)" xlink:href="#b"/><use fill="#3e3e40" transform="translate(-846.3 -48.7)" xlink:href="#c"/><g><path d="M12 80c16-95 198-95 220 0" fill="transparent" id="d"/><text dx="0 3 3 3 3 3 3 8 3 3 3 8 3 3 3 3 3 3 8 3 3 3 3 3 3 3 3 3 3 3 3 3 3" font-weight="400" font-family="'Ostrich Sans - Black', 'Franklin Gothic Medium', sans-serif" font-size="12" x="16"><textPath xlink:href="#d"> INSPIRE THE WORLD EVERYDAY </textPath></text></g></svg>