  <svg
        height="110"
        viewBox="0 0 241 110"
        width="241"
        xmlns="http://www.w3.org/2000/svg"
        xmlns:xlink="http://www.w3.org/1999/xlink"
      >
        <defs>
          <path
            d="M 1031.3 117 s -3.4 -9 -11.5 -4.8 c -2.4 1.2 -6.9 5 -12.1 9.6 c -10.4 -13.4 -26.9 -34 -32.7 -38.1 c -8.8 -6.1 -14.4 4 -14.4 4 l -36.2 30.4 c -3.4 -2.9 -6.3 -5.1 -8 -6 c -8.1 -4.2 -11.5 4.8 -11.5 4.8 L 867.5 158.4 h 21.5 c 0.7 -0.6 1.3 -1.2 1.8 -1.6 c 11.5 -10.3 1.3 -6.6 2  -8.4 c 0.7 -1.8 4.1 -6.6 8.1 -6 c 4.1 0.6 9.5 -0.6 12.2 -3.6 c 2.7 -3 0.7 -3.6 6.1 -7.8 c 5.4 -4.2 7.4 2.4 14.9 10.9 c 7.4 8.4 23.7 7.8 23.7 7.8 s -9.1 -9.1 -18.9 -18.4 c 12.2 -8.8 0.9 -6.3 2 -8.3 c 1.1 -2 6 -7.2 10.6 -5.9 c 4.7 1.3 11.2 0.6 15 -2.5 c 3.7 -3.2 1.4 -4.2 8.6 -8.3 c 7.1 -4.2 8.3 3.9 15.5 14.9 c 2.3 3.5 5.8 6.1 9.6 7.9 c -10.7 10 -21.3 20.7 -21.3 20.7 s 16.2 0.6 23.6 -7.8 c 7.4 -8.4 9.5 -15.1 14.9 -10.9 c 5.4 4.2 3.4 4.8 6.1 7.8 c 2.7 3 8.1 4.2 12.2 3.6 c 4.1 -0.6 7.4 4.2 8.1 6 c 0.7 1.8 -9.5 -1.8 2 8.4 c 0.5 0.4 1.1 0.9 1.8 1.6 h 21.5 z"
            id="26pac"
          />
        </defs>
        <g>
          <g transform="matrix(1,0,0,1,-836.7,-81)">
            <g>
              <use
                fill="#3e3e40"
                transform="matrix(1,0,0,1,-9.6,32.3)"
                xlink:href="#26pac"
              />
            </g>
          </g>
        </g>
      </svg>